<svg id="レイヤー_1" data-name="レイヤー 1" xmlns="http://www.w3.org/2000/svg" viewBox="0 0 1280 600"><defs><style>.cls-1{fill:#244456;}</style></defs><title>アートボード 1</title><path class="cls-1" d="M83.7,253.26c7.72-7.88,17.53-10.72,29.45-10.72q23.92,0,35,15.86,6.12,8.91,6.56,17.88h-20q-1.9-6.88-4.9-10.4-5.36-6.24-15.86-6.24A19.54,19.54,0,0,0,97,268.45q-6.18,8.81-6.18,24.92t6.52,24.15a20.44,20.44,0,0,0,16.56,8q10.31,0,15.71-6.89,3-3.71,5-11.12H154.5Q151.92,323.2,141.35,333t-27.11,9.82a41.49,41.49,0,0,1-32.15-14.37q-11.7-13.34-11.7-36.53Q70.39,266.84,83.7,253.26Z"/><path class="cls-1" d="M220.88,247.94a23.65,23.65,0,0,1,9,6.7,29.91,29.91,0,0,1,4.81,8.06,26.71,26.71,0,0,1,1.78,10.07A28.64,28.64,0,0,1,233,286.19q-3.44,6.6-11.37,9.33,6.63,2.67,9.39,7.57t2.76,15v6.43a48.53,48.53,0,0,0,.53,8.9,8,8,0,0,0,3.7,5.46v2.41H215.9c-.61-2.12-1-3.84-1.3-5.14a47.67,47.67,0,0,1-.85-8.25l-.13-8.9q-.12-9.17-3.16-12.22t-11.41-3.06H179.5v37.57H159.94V245.47h45.82Q215.59,245.67,220.88,247.94ZM179.5,262.11v25.74h21.55c4.28,0,7.48-.52,9.63-1.56q5.67-2.73,5.67-10.79,0-8.7-5.49-11.7c-2.06-1.12-5.14-1.69-9.26-1.69Z"/><path class="cls-1" d="M312.64,262.44h-50.7v20.34h46.54v16.64H261.94v24.64h53v17.22h-72.6V245.47h70.26Z"/><path class="cls-1" d="M347,245.47h22.65l33.9,95.81H381.86l-6.32-19.69H340.26l-6.5,19.69H312.82Zm-1.32,59.61h24.54l-12.1-37.7Z"/><path class="cls-1" d="M462,245.47v17H433.29v78.84H413.14V262.44H384.35v-17Z"/><path class="cls-1" d="M480.37,341.28H460.49V245.47h19.88Z"/><path class="cls-1" d="M542.74,245.47h20.79l-32.66,95.81H512l-32.4-95.81h21.38l20.8,72.74Z"/><path class="cls-1" d="M633.38,262.44h-50.7v20.34h46.54v16.64H582.68v24.64h53v17.22h-72.6V245.47h70.26Z"/><path class="cls-1" d="M127.58,370a31.67,31.67,0,0,1,16.33,12.16,42.8,42.8,0,0,1,6.83,15.47,74.39,74.39,0,0,1,1.82,15.85q0,19.11-7.68,32.37-10.41,17.88-32.13,17.88H71.44V367.93h41.31A50.56,50.56,0,0,1,127.58,370Zm-36.7,14.56V447.1h18.48q14.19,0,19.79-14a49.19,49.19,0,0,0,3.06-18.26q0-14.62-4.59-22.46t-18.26-7.83Z"/><path class="cls-1" d="M229.58,384.9h-50.7v20.34h46.54v16.64H178.88v24.63h53v17.23h-72.6V367.93h70.26Z"/><path class="cls-1" d="M248.88,434.16q.93,6.57,3.65,9.82,5,5.91,17,5.91a36.74,36.74,0,0,0,11.75-1.56q8.57-3,8.56-11.11a8.22,8.22,0,0,0-4.19-7.35q-4.2-2.53-13.31-4.48L262,423.11q-15.28-3.37-21-7.34-9.69-6.63-9.68-20.73a27.54,27.54,0,0,1,9.47-21.39q9.48-8.5,27.83-8.51,15.33,0,26.16,8t11.35,23.31H286.9q-.54-8.66-7.73-12.29a26.52,26.52,0,0,0-11.93-2.4q-7.92,0-12.66,3.12a9.88,9.88,0,0,0-4.73,8.71,8.22,8.22,0,0,0,4.67,7.67c2,1.12,6.24,2.44,12.72,4l16.82,4q11.06,2.6,16.57,7,8.56,6.76,8.56,19.56A27.47,27.47,0,0,1,299,457.53q-10.14,8.67-28.67,8.68-18.93,0-29.76-8.55t-10.84-23.5Z"/><path class="cls-1" d="M380.88,367.93v17H352.21v78.84H332.06V384.9H303.27v-17Z"/><path class="cls-1" d="M441.27,370.4a23.65,23.65,0,0,1,9,6.7,29.54,29.54,0,0,1,4.82,8.06,26.88,26.88,0,0,1,1.77,10.07,28.62,28.62,0,0,1-3.44,13.42q-3.45,6.6-11.38,9.33,6.63,2.67,9.4,7.57t2.76,15V447a47.61,47.61,0,0,0,.53,8.9,8,8,0,0,0,3.69,5.46v2.41h-22.1c-.6-2.12-1-3.84-1.3-5.14a46.71,46.71,0,0,1-.84-8.25l-.13-8.91q-.12-9.17-3.17-12.22t-11.4-3.05H399.9v37.57H380.33V367.93h45.83Q436,368.13,441.27,370.4ZM399.9,384.57v25.74h21.54q6.42,0,9.63-1.56,5.69-2.73,5.68-10.79,0-8.71-5.49-11.7-3.09-1.69-9.26-1.69Z"/><path class="cls-1" d="M461.62,367.93H482v58.84q0,9.87,2.33,14.42,3.63,8.06,15.81,8.05t15.73-8.05q2.34-4.54,2.34-14.42V367.93h20.34v58.89q0,15.27-4.74,23.79-8.82,15.6-33.67,15.6t-33.75-15.6q-4.73-8.52-4.73-23.79Z"/><path class="cls-1" d="M554.49,377.94q11.58-11.82,29.46-11.83,23.91,0,35,15.86,6.11,8.91,6.55,17.88h-20q-1.92-6.9-4.91-10.4-5.34-6.24-15.85-6.24a19.55,19.55,0,0,0-16.88,8.8q-6.17,8.82-6.17,24.93t6.51,24.15a20.44,20.44,0,0,0,16.57,8q10.29,0,15.7-6.89,3-3.71,5-11.11h19.89q-2.58,15.66-13.15,25.48T585,466.4q-20.44,0-32.15-13.26t-11.71-36.53Q541.18,391.53,554.49,377.94Z"/><path class="cls-1" d="M698.51,367.93v17H669.84v78.84H649.69V384.9H620.9v-17Z"/><path class="cls-1" d="M716.93,463.74H697V367.93h19.89Z"/><path class="cls-1" d="M797.66,455.22q-10.85,11.19-31.39,11.18t-31.39-11.18q-14.57-13.71-14.56-39.52,0-26.31,14.56-39.51c7.23-7.46,17.7-10.18,31.39-10.18s24.16,2.72,31.39,10.18q14.51,13.19,14.5,39.51Q812.16,441.52,797.66,455.22Zm-12.51-14.56q7-8.78,7-25t-7-24.92q-7-8.8-18.88-8.81t-19,8.78q-7.08,8.78-7.08,24.95t7.08,25q7.08,8.77,19,8.78T785.15,440.66Z"/><path class="cls-1" d="M815.33,367.93h21l38,66.8v-66.8H893v95.81H873l-39-68v68H815.33Z"/><path class="cls-1" d="M75.13,157.9a9.55,9.55,0,0,1,12.75,0,10.24,10.24,0,0,1,0,13.13,9.58,9.58,0,0,1-12.75,0,10.21,10.21,0,0,1,0-13.13Zm2.49,11.16a5.42,5.42,0,0,0,7.77,0,8.05,8.05,0,0,0,0-9.19,5.4,5.4,0,0,0-7.77,0,8.05,8.05,0,0,0,0,9.19Z"/><path class="cls-1" d="M96.14,155.7v10.61q0,4.4,3.44,4.39t3.45-4.39V155.7h3.31v10.39a7.7,7.7,0,0,1-1.76,5.51,7.77,7.77,0,0,1-10.09,0,7.74,7.74,0,0,1-1.75-5.51V155.7Z"/><path class="cls-1" d="M113.21,166.38v6.84H109.9v-17.4a36.27,36.27,0,0,1,5.27-.36,8.83,8.83,0,0,1,5.29,1.31,4.34,4.34,0,0,1,1.75,3.68,5.09,5.09,0,0,1-.93,3,4.77,4.77,0,0,1-2.51,1.8v.05a5.4,5.4,0,0,1,2,2.85l1.92,5h-3.46l-1.82-5a3.08,3.08,0,0,0-1-1.51,3.65,3.65,0,0,0-1.89-.36Zm0-2.54h1.41q4.27,0,4.28-3.05,0-2.72-4-2.71a8.83,8.83,0,0,0-1.73.14Z"/><path class="cls-1" d="M146.81,161.39h-.05l-3.84,7.44h-3l-3.84-7.44h0v11.83h-3.2V155.7h3.36L141.38,166h.05l5.21-10.32h3.45v17.52h-3.28Z"/><path class="cls-1" d="M154.37,173.22V155.7H158v17.52Z"/><path class="cls-1" d="M172.58,159.18a10.38,10.38,0,0,0-4.68-1.08,3.2,3.2,0,0,0-2.06.58,1.85,1.85,0,0,0-.72,1.53c0,1.14.82,1.94,2.47,2.4a11.32,11.32,0,0,1,4.74,2.28,4.66,4.66,0,0,1,1.38,3.48,4.55,4.55,0,0,1-1.63,3.78,7.38,7.38,0,0,1-4.73,1.31,10.4,10.4,0,0,1-5.64-1.56l.84-2.69a8.55,8.55,0,0,0,4.87,1.56,3.26,3.26,0,0,0,2.15-.61,2.14,2.14,0,0,0,.73-1.74,2.19,2.19,0,0,0-.59-1.63,5.1,5.1,0,0,0-2.12-1.06,10.51,10.51,0,0,1-4.45-2.23,4.4,4.4,0,0,1-1.38-3.29,4.22,4.22,0,0,1,1.59-3.45,6.91,6.91,0,0,1,4.48-1.3,13,13,0,0,1,5.45,1.13Z"/><path class="cls-1" d="M187.17,159.18a10.38,10.38,0,0,0-4.68-1.08,3.2,3.2,0,0,0-2.06.58,1.85,1.85,0,0,0-.72,1.53c0,1.14.82,1.94,2.47,2.4a11.32,11.32,0,0,1,4.74,2.28,4.66,4.66,0,0,1,1.38,3.48,4.55,4.55,0,0,1-1.63,3.78,7.36,7.36,0,0,1-4.73,1.31,10.45,10.45,0,0,1-5.64-1.56l.84-2.69a8.55,8.55,0,0,0,4.87,1.56,3.26,3.26,0,0,0,2.15-.61,2.14,2.14,0,0,0,.73-1.74,2.23,2.23,0,0,0-.58-1.63,5.15,5.15,0,0,0-2.13-1.06,10.51,10.51,0,0,1-4.45-2.23,4.4,4.4,0,0,1-1.38-3.29,4.2,4.2,0,0,1,1.6-3.45,6.86,6.86,0,0,1,4.47-1.3,13,13,0,0,1,5.45,1.13Z"/><path class="cls-1" d="M192,173.22V155.7h3.68v17.52Z"/><path class="cls-1" d="M201.23,157.9a9.53,9.53,0,0,1,12.74,0A10.21,10.21,0,0,1,214,171a9.56,9.56,0,0,1-12.74,0,10.21,10.21,0,0,1,0-13.13Zm2.48,11.16a5.42,5.42,0,0,0,7.77,0,8.05,8.05,0,0,0,0-9.19,5.4,5.4,0,0,0-7.77,0,8.05,8.05,0,0,0,0,9.19Z"/><path class="cls-1" d="M219.07,173.22V155.7h3.29l7.22,11.93h0V155.7h3.29v17.52h-3.29l-7.23-11.93h0v11.93Z"/></svg>