<svg width="502" height="91" viewBox="0 0 502 91" fill="none" xmlns="http://www.w3.org/2000/svg">
<path d="M35.072 73.248C54.368 73.248 65.888 58.848 65.888 41.376V33.792C65.888 32.928 65.312 32.352 64.448 32.352H35.264C34.4 32.352 33.824 32.928 33.824 33.792V45.6C33.824 46.464 34.4 47.04 35.264 47.04H50.048C49.28 52.128 44.576 56.832 35.648 56.832C24.608 56.832 16.928 49.248 16.928 38.688C16.928 28.128 24.608 20.448 34.784 20.448C40.256 20.448 44.48 22.368 47.936 25.248C48.608 25.92 49.472 25.92 50.24 25.056L58.208 16.608C59.168 15.552 59.168 14.592 58.304 13.824C52.64 7.776 44.576 4.032 34.688 4.032C15.872 4.032 0.0320003 18.816 0.0320003 38.688C0.0320003 58.56 15.872 73.248 35.072 73.248ZM90.8255 73.152C97.4495 73.152 101.674 69.888 104.362 65.088L104.746 70.368C104.746 71.616 105.418 72 106.282 72H118.858C119.722 72 120.49 71.328 120.49 70.464V26.496C120.49 25.632 119.722 24.96 118.858 24.96H105.898C105.034 24.96 104.362 25.632 104.362 26.496V49.632C104.362 55.488 101.674 58.368 97.1615 58.368C92.4575 58.368 90.0575 55.488 90.0575 49.632V26.496C90.0575 25.632 89.3855 24.96 88.5215 24.96H75.4655C74.6015 24.96 73.9295 25.632 73.9295 26.496V53.664C73.9295 65.856 81.1295 73.152 90.8255 73.152ZM131.903 90.24H145.055C145.919 90.24 146.591 89.568 146.591 88.704V67.872C149.759 71.232 153.983 73.152 159.647 73.152C172.607 73.152 181.535 62.4 181.535 48.48C181.535 34.656 172.607 23.808 159.647 23.808C153.023 23.808 148.511 26.208 145.535 30.336L145.343 26.496C145.343 25.632 144.671 24.96 143.807 24.96H131.903C131.039 24.96 130.367 25.632 130.367 26.496V88.704C130.367 89.568 131.039 90.24 131.903 90.24ZM155.999 58.56C150.335 58.56 146.399 54.528 146.399 48.384C146.399 42.336 150.335 38.4 155.999 38.4C161.567 38.4 165.791 42.432 165.791 48.48C165.791 54.624 161.567 58.56 155.999 58.56ZM212.86 73.152C219.58 73.152 225.628 71.328 229.564 67.296C230.524 66.432 230.428 65.664 230.044 65.088L225.628 58.944C225.148 58.176 224.668 57.984 223.9 58.368C219.964 60.48 216.892 60.576 214.204 60.576C208.348 60.576 204.22 58.944 202.492 54.624H227.932C232.636 54.624 233.884 51.456 233.884 46.368C233.884 34.272 225.532 23.808 211.132 23.808C196.444 23.808 186.748 34.464 186.748 48.288C186.748 62.784 197.404 73.152 212.86 73.152ZM202.204 43.584C203.452 38.784 207.1 36.96 211.228 36.96C215.164 36.96 218.62 38.592 219.58 43.584H202.204ZM242.997 72H256.053C256.917 72 257.589 71.328 257.589 70.464V48.864C257.589 41.568 261.429 38.304 267.093 38.304C268.725 38.304 269.685 38.592 270.645 38.784C271.989 39.072 272.661 38.784 272.661 37.536V27.168C272.661 26.304 272.469 25.632 271.701 25.056C271.029 24.48 269.781 23.808 267.381 23.808C262.005 23.808 259.125 27.648 257.589 32.928L257.109 26.592C257.109 25.344 256.437 24.96 255.669 24.96H242.997C242.133 24.96 241.461 25.632 241.461 26.496V70.464C241.461 71.328 242.133 72 242.997 72ZM301.612 73.152C315.916 73.152 326.38 62.304 326.38 48.48C326.38 34.656 315.916 23.808 301.612 23.808C287.212 23.808 276.748 34.656 276.748 48.48C276.748 62.304 287.212 73.152 301.612 73.152ZM301.612 58.368C296.428 58.368 292.204 54.72 292.204 48.48C292.204 42.24 296.428 38.592 301.612 38.592C306.7 38.592 310.924 42.24 310.924 48.48C310.924 54.72 306.7 58.368 301.612 58.368ZM360.717 18.336C365.709 18.336 369.453 14.496 369.453 9.6C369.453 4.8 365.709 0.959999 360.717 0.959999C355.629 0.959999 351.981 4.8 351.981 9.6C351.981 14.496 355.629 18.336 360.717 18.336ZM354.093 72H367.341C368.205 72 368.877 71.328 368.877 70.464V26.496C368.877 25.632 368.205 24.96 367.341 24.96H354.093C353.229 24.96 352.557 25.632 352.557 26.496V70.464C352.557 71.328 353.229 72 354.093 72ZM380.528 72H393.584C394.448 72 395.12 71.328 395.12 70.464V47.328C395.12 41.472 397.712 38.592 402.32 38.592C407.024 38.592 409.424 41.472 409.424 47.328V70.464C409.424 71.328 410.096 72 410.96 72H423.92C424.784 72 425.552 71.328 425.552 70.464V43.296C425.552 31.104 418.256 23.808 408.56 23.808C401.936 23.808 397.808 27.072 395.12 31.872L394.64 26.592C394.64 25.344 393.968 24.96 393.2 24.96H380.528C379.664 24.96 378.992 25.632 378.992 26.496V70.464C378.992 71.328 379.664 72 380.528 72ZM458.086 73.152C465.67 73.152 472.102 69.696 476.134 64.416C476.71 63.744 476.518 62.88 475.942 62.304L468.55 55.2C467.878 54.528 466.63 54.432 465.958 55.104C463.558 57.408 461.254 58.368 458.661 58.368C452.038 58.368 448.486 53.376 448.486 48.192C448.486 43.008 452.038 38.592 458.374 38.592C461.158 38.592 463.462 39.552 465.862 41.76C466.534 42.528 467.782 42.432 468.454 41.76L475.846 34.656C476.422 34.08 476.614 33.216 476.038 32.544C472.006 27.264 465.574 23.808 457.606 23.808C443.398 23.808 433.03 34.368 433.03 48.192C433.03 62.304 443.59 73.152 458.086 73.152ZM491.864 73.248C496.952 73.248 501.08 69.12 501.08 64.032C501.08 58.848 496.952 54.624 491.864 54.624C486.68 54.624 482.552 58.848 482.552 64.032C482.552 69.12 486.68 73.248 491.864 73.248Z" fill="white"/>
</svg>
