<svg id="レイヤー_1" data-name="レイヤー 1" xmlns="http://www.w3.org/2000/svg" viewBox="0 0 486.4 167.2"><defs><style>.cls-1{fill:#ff4981;}</style></defs><title>アートボード 1</title><path class="cls-1" d="M70.18,60.91H116.9v3.74a77.33,77.33,0,0,1-3,22.56,47.89,47.89,0,0,1-9.89,17Q88.26,121.93,64,121.92q-23.73,0-40.65-17.13A56.85,56.85,0,0,1,6.38,63.48q0-24.61,17.21-41.75T65.49,4.52A57.18,57.18,0,0,1,90.24,9.94q11,5.42,21.61,17.58L99.69,39.16Q85.77,20.64,65.78,20.63q-17.94,0-30.1,12.38Q23.52,45.16,23.52,63.48q0,18.88,13.55,31.12Q49.75,106,64.54,106a34.09,34.09,0,0,0,22.63-8.5q10-8.56,11.2-20.51H70.18Z"/><path class="cls-1" d="M137,48.46V89.4q0,17.73,14,17.73T165,89.4V48.46H181.5V89.77a46.18,46.18,0,0,1-2.12,14.8,24.89,24.89,0,0,1-7.11,10q-8.34,7.25-21.24,7.25t-21.16-7.25a25.18,25.18,0,0,1-7.25-10q-2.06-5-2.06-14.8V48.46Z"/><path class="cls-1" d="M203.64,158.62H187.16V48.46h16.48v7.77q9.74-9.75,22.12-9.75A30.84,30.84,0,0,1,250,57.32q9.67,10.77,9.67,27.18,0,16-9.59,26.73a30.89,30.89,0,0,1-24,10.62q-12.53,0-22.41-10Zm39.19-74.05q0-10.25-5.57-16.7a18,18,0,0,0-14.21-6.52,18.83,18.83,0,0,0-14.72,6.3q-5.64,6.3-5.64,16.55,0,10,5.64,16.56A18.49,18.49,0,0,0,223,107.13a17.85,17.85,0,0,0,14.13-6.45Q242.83,94.25,242.83,84.57Z"/><path class="cls-1" d="M331.12,88.26H280q.66,8.79,5.71,14a17.44,17.44,0,0,0,13,5.12,16.81,16.81,0,0,0,10.18-2.93q4-2.93,9-10.84l13.92,7.77a55.56,55.56,0,0,1-6.81,9.41,36.41,36.41,0,0,1-7.69,6.44,30.7,30.7,0,0,1-8.87,3.7,43.12,43.12,0,0,1-10.32,1.18q-16,0-25.64-10.26t-9.67-27.39q0-16.92,9.38-27.39t25-10.33q15.75,0,24.9,10t9.08,27.61ZM314.2,74.78q-3.45-13.19-16.63-13.18a17.1,17.1,0,0,0-5.64.91,16.13,16.13,0,0,0-4.79,2.64,16.7,16.7,0,0,0-3.7,4.14,19.17,19.17,0,0,0-2.35,5.49Z"/><path class="cls-1" d="M338.25,48.46h16.48v6.37a31.39,31.39,0,0,1,8.06-6.51,18.46,18.46,0,0,1,8.49-1.84q6.53,0,13.62,4.25l-7.54,15.09a15.77,15.77,0,0,0-9.15-3.37q-13.48,0-13.48,20.36v37H338.25Z"/><path class="cls-1" d="M382.36,83.62a35.48,35.48,0,0,1,11.06-26.3,39,39,0,0,1,54.05.08,36.28,36.28,0,0,1,11,26.8q0,16-11.06,26.88t-27.32,10.77q-16,0-26.88-11Q382.36,100,382.36,83.62Zm16.84.29q0,10.7,5.72,16.92t15.45,6.3q9.67,0,15.46-6.23t5.78-16.62q0-10.4-5.78-16.63t-15.46-6.3q-9.45,0-15.31,6.3T399.2,83.91Z"/></svg>